<svg width="16" height="16" viewBox="0 0 16 16" fill="none" xmlns="http://www.w3.org/2000/svg">
<rect width="16" height="16" fill="white"/>
<path d="M3.50781 10V4.3125H5.5C6.1901 4.3125 6.71354 4.44531 7.07031 4.71094C7.42708 4.97396 7.60547 5.36068 7.60547 5.87109C7.60547 6.14974 7.53385 6.39583 7.39062 6.60938C7.2474 6.82031 7.04818 6.97526 6.79297 7.07422C7.08464 7.14714 7.3138 7.29427 7.48047 7.51562C7.64974 7.73698 7.73438 8.00781 7.73438 8.32812C7.73438 8.875 7.5599 9.28906 7.21094 9.57031C6.86198 9.85156 6.36458 9.99479 5.71875 10H3.50781ZM4.67969 7.52344V9.05859H5.68359C5.95964 9.05859 6.17448 8.99349 6.32812 8.86328C6.48438 8.73047 6.5625 8.54818 6.5625 8.31641C6.5625 7.79557 6.29297 7.53125 5.75391 7.52344H4.67969ZM4.67969 6.69531H5.54688C6.13802 6.6849 6.43359 6.44922 6.43359 5.98828C6.43359 5.73047 6.35807 5.54557 6.20703 5.43359C6.05859 5.31901 5.82292 5.26172 5.5 5.26172H4.67969V6.69531ZM11.5664 8.50781C11.5664 8.28646 11.4883 8.11719 11.332 8C11.1758 7.88021 10.8945 7.75521 10.4883 7.625C10.082 7.49219 9.76042 7.36198 9.52344 7.23438C8.8776 6.88542 8.55469 6.41536 8.55469 5.82422C8.55469 5.51693 8.64062 5.24349 8.8125 5.00391C8.98698 4.76172 9.23568 4.57292 9.55859 4.4375C9.88411 4.30208 10.2487 4.23438 10.6523 4.23438C11.0586 4.23438 11.4206 4.30859 11.7383 4.45703C12.056 4.60286 12.3021 4.8099 12.4766 5.07812C12.6536 5.34635 12.7422 5.65104 12.7422 5.99219H11.5703C11.5703 5.73177 11.4883 5.52995 11.3242 5.38672C11.1602 5.24089 10.9297 5.16797 10.6328 5.16797C10.3464 5.16797 10.1237 5.22917 9.96484 5.35156C9.80599 5.47135 9.72656 5.63021 9.72656 5.82812C9.72656 6.01302 9.81901 6.16797 10.0039 6.29297C10.1914 6.41797 10.4661 6.53516 10.8281 6.64453C11.4948 6.84505 11.9805 7.09375 12.2852 7.39062C12.5898 7.6875 12.7422 8.05729 12.7422 8.5C12.7422 8.99219 12.556 9.37891 12.1836 9.66016C11.8112 9.9388 11.3099 10.0781 10.6797 10.0781C10.2422 10.0781 9.84375 9.9987 9.48438 9.83984C9.125 9.67839 8.85026 9.45833 8.66016 9.17969C8.47266 8.90104 8.37891 8.57812 8.37891 8.21094H9.55469C9.55469 8.83854 9.92969 9.15234 10.6797 9.15234C10.9583 9.15234 11.1758 9.09635 11.332 8.98438C11.4883 8.86979 11.5664 8.71094 11.5664 8.50781Z" fill="#060AC5"/>
</svg>
